<?xml version="1.0" encoding="utf-8"?>
<!-- Generator: Adobe Illustrator 25.2.2, SVG Export Plug-In . SVG Version: 6.00 Build 0)  -->
<svg version="1.1" id="Calque_1" xmlns="http://www.w3.org/2000/svg" xmlns:xlink="http://www.w3.org/1999/xlink" x="0px" y="0px"
	 viewBox="0 0 981 209" style="enable-background:new 0 0 981 209;" xml:space="preserve">
<style type="text/css">
	.st0{fill:#FFFFFF;}
	.st1{fill:#E53935;}
</style>
<g>
	<path class="st0" d="M102.06,177.8c-33.05,0-58.05-23.14-58.05-59.08c0-36.15,25.82-59.08,58.88-59.08s58.88,22.93,58.88,59.08
		C161.77,154.66,135.32,177.8,102.06,177.8z M102.06,152.6c15.29,0,29.96-11.16,29.96-33.88c0-22.93-14.25-33.88-29.54-33.88
		s-29.13,10.95-29.13,33.88C73.35,141.44,86.57,152.6,102.06,152.6z"/>
	<path class="st0" d="M226.02,59.63c28.51,0,47.72,14.87,53.92,40.49h-31.19c-3.31-9.71-10.95-15.91-22.93-15.91
		c-16.11,0-26.86,12.19-26.86,34.5S209.7,153,225.82,153c11.98,0,19.42-5.37,22.93-15.7h31.19c-6.2,24.38-25.41,40.49-53.92,40.49
		c-33.05,0-56.61-23.14-56.61-59.08S192.96,59.63,226.02,59.63z"/>
	<path class="st0" d="M299.56,85.25h-13.64V61.49h13.64v-28.3h29.13v28.3h25.62v23.76h-25.62v55.37c0,7.64,3.1,10.95,12.19,10.95
		h13.43v24.38h-18.18c-21.9,0-36.57-9.3-36.57-35.53V85.25z"/>
	<path class="st0" d="M413.8,59.63c18.39,0,30.99,8.68,37.81,18.18V61.49h29.13v114.45h-29.13v-16.73
		c-6.82,9.92-19.83,18.59-38.01,18.59c-28.92,0-52.06-23.76-52.06-59.5C361.54,82.56,384.67,59.63,413.8,59.63z M421.24,85.04
		c-15.49,0-30.16,11.57-30.16,33.26s14.67,34.09,30.16,34.09c15.91,0,30.37-11.98,30.37-33.67
		C451.61,97.02,437.15,85.04,421.24,85.04z"/>
	<path class="st1" d="M552.01,59.63c28.51,0,47.72,14.87,53.92,40.49h-31.19c-3.31-9.71-10.95-15.91-22.93-15.91
		c-16.11,0-26.86,12.19-26.86,34.5S535.69,153,551.81,153c11.98,0,19.42-5.37,22.93-15.7h31.19c-6.2,24.38-25.41,40.49-53.92,40.49
		c-33.05,0-56.61-23.14-56.61-59.08C495.41,82.77,518.96,59.63,552.01,59.63z"/>
	<path class="st1" d="M671.83,177.8c-33.05,0-58.05-23.14-58.05-59.08c0-36.15,25.82-59.08,58.88-59.08s58.88,22.93,58.88,59.08
		C731.54,154.66,705.09,177.8,671.83,177.8z M671.83,152.6c15.29,0,29.96-11.16,29.96-33.88c0-22.93-14.25-33.88-29.54-33.88
		s-29.13,10.95-29.13,33.88C643.12,141.44,656.34,152.6,671.83,152.6z"/>
	<path class="st0" d="M906.72,112.72c0-18.18-10.12-27.68-25.41-27.68c-15.49,0-25.62,9.5-25.62,27.68v63.22h-28.92v-63.22
		c0-18.18-10.12-27.68-25.41-27.68c-15.7,0-25.82,9.5-25.82,27.68v63.22h-28.92V61.49h28.92v13.84c7.23-9.5,19.42-15.49,33.67-15.49
		c17.77,0,32.43,7.64,40.28,21.9c7.44-13.02,22.52-21.9,39.25-21.9c27.48,0,46.9,17.35,46.9,48.96v67.14h-28.92L906.72,112.72
		L906.72,112.72z"/>
</g>
</svg>
